<?xml version="1.0" standalone="no"?><!DOCTYPE svg PUBLIC "-//W3C//DTD SVG 1.1//EN" "http://www.w3.org/Graphics/SVG/1.1/DTD/svg11.dtd"><svg t="1533187512063" class="icon" style="" viewBox="0 0 1024 1024" version="1.1" xmlns="http://www.w3.org/2000/svg" p-id="2481" xmlns:xlink="http://www.w3.org/1999/xlink" width="32" height="32"><defs><style type="text/css"></style></defs><path d="M360.042803 684.410025c4.013778 1.216296 9.365483 7.419408 18.122817 18.244447 31.623708 38.678228 61.544601 78.694382 94.262977 116.521202 13.500891 15.690224 14.595558 18.730966 16.663262 12.284594 10.33852-32.596745 20.433781-62.396009 11.311557-76.140159-21.528448-25.785485-76.626678-91.708754-98.155125-117.494239l-42.205488 46.584155z" fill="#5B5C5C" p-id="2482"></path><path d="M371.840879 642.934315c3.162371-16.784891 8.270816-33.569783 9.000594-50.476303 1.094667-26.636893 12.892743-31.01556 37.218672-31.25882 31.745338-0.364889 87.816605-0.364889 119.926832 0 7.05452 0.12163 0.851408 0.851408-0.243259-5.838223-4.013778-24.325929-16.541632-53.638674-41.718969-54.125193-30.772301-0.486519-53.152156 0-84.046087 0-11.798076 0-23.109633-3.648889-21.650077-20.433781 4.135408-47.192303 0.486519-94.627866 5.594964-141.820168 2.067704-18.974225 9.608742-25.177337 27.366671-24.569189 23.474522 0.851408 65.923269 0.486519 89.39779 0 27.60993-0.486519 33.934672 7.784297 5.716594-40.745932-8.757335-14.960447-20.55541-12.527854-34.42119-12.527853-58.868749 0-121.021499-0.486519-180.011878 0-19.825632 0.12163-23.352892-9.973631-16.298373-29.677634 6.689631-18.852595 14.717187-53.517045 20.79867-72.6129 5.594964-17.757928-0.12163-13.500891-0.12163-13.500891-24.569189 14.230669-67.139565 32.718375-77.113196 58.017342-24.325929 61.90949-52.300748 140.117354-78.086234 201.540326-2.310963 5.351704-4.013778 5.959853 13.500891 1.581185 32.596745-8.149186 64.828602-25.542226 80.397197-56.071267 19.095855-37.461931 23.109633-39.286376 63.490676-36.002376 12.406224 0.973037 17.514669 4.865186 17.14978 18.122818-1.337926 46.340896-2.189334 92.803421-1.824445 139.265946 0.243259 20.55541-8.149186 30.042523-27.731559 29.434374-30.772301-0.973037-65.193491 0.608148-95.965792 0-19.825632-0.364889-41.718969 19.825632-45.124599 46.462525-1.459556 10.33852-4.013778 13.379261-2.919112 13.500891 35.394227-0.364889 102.655422 0.973037 137.92802 0 18.974225-0.486519 26.636893 3.770519 23.474522 23.961041-7.419408 47.313933-21.163559 92.316902-43.665043 134.27913C244.00812 771.253593 207.154336 815.770044 161.543219 853.110346 156.191514 857.489013 148.042328 861.86768 150.353291 870.260126c2.432593 9.000594 11.676446 7.905927 18.487707 7.662668 43.178525-1.581185 85.019123-6.568001 115.669794-43.178525 30.89393-36.853783 49.868155-79.910678 66.653047-124.3055l20.67704-67.504454zM628.114545 759.212258V321.223898H814.086276v437.98836h-59.963416l-84.897494 54.611712-17.14978-54.611712h-23.961041m245.935147-491.991923H568.0295v545.873857H627.992916l17.514669 65.680009 90.370828-65.680009h137.92802V268.558261" fill="#5B5C5C" p-id="2483"></path></svg>